<svg xmlns="http://www.w3.org/2000/svg" viewBox="0 0 83.94 83.95"><defs><style>.cls-1{fill:#fff;}.cls-2{fill:#ff9e18;}</style></defs><title>Ativo 1</title><g id="Camada_2" data-name="Camada 2"><g id="Camada_1-2" data-name="Camada 1"><path class="cls-1" d="M81.65,38.07a11,11,0,0,0,2.18-5.13c0-.17,0-.34,0-.51s0-.29.07-.43V30.68c0-.12,0-.23-.07-.35-.05-.41-.07-.83-.16-1.24a9.87,9.87,0,0,0-3.32-5.64,11.21,11.21,0,0,0-5.48-2.37,18.16,18.16,0,0,0-5.7,0A26,26,0,0,0,63,22.84a30.85,30.85,0,0,0-3.71,1.78c.26-.46.51-.92.74-1.4a27.22,27.22,0,0,0,3-10.73,15.11,15.11,0,0,0-.77-5.74,9.61,9.61,0,0,0-3.88-5A10.43,10.43,0,0,0,52.64,0a11,11,0,0,0-7,2.46,13.41,13.41,0,0,0-3,3.49c-.19.31-.37.63-.59,1-.09-.15-.15-.25-.22-.35-.45-.68-.85-1.4-1.36-2A11.13,11.13,0,0,0,29.91.1a9.89,9.89,0,0,0-8.42,7.26,16.78,16.78,0,0,0-.4,7.12,25.68,25.68,0,0,0,1.59,6,32.92,32.92,0,0,0,1.8,3.85L73,42,24.41,59.71c-.18.33-.37.66-.54,1a28,28,0,0,0-2.92,10,16,16,0,0,0,.55,5.85,10.29,10.29,0,0,0,2.36,4.21,10,10,0,0,0,5.61,3l1.26.23h1.32l1.11-.2a11.32,11.32,0,0,0,6.52-3.59,14.3,14.3,0,0,0,2.1-2.9l.2-.33c.08.15.15.25.21.36a13.82,13.82,0,0,0,3.48,4.17,11.11,11.11,0,0,0,5.55,2.35c.24,0,.48.09.72.14h1.32l1.26-.23a10,10,0,0,0,8.12-7.83,17.42,17.42,0,0,0,.2-6.67A26,26,0,0,0,61.1,63a34.8,34.8,0,0,0-1.81-3.74,23.3,23.3,0,0,0,2.28,1.17A27.26,27.26,0,0,0,71.1,63a15.59,15.59,0,0,0,5.48-.56,9.89,9.89,0,0,0,7.29-8.86c0-.12,0-.24.07-.36V51.88a1.65,1.65,0,0,1-.06-.32,10.17,10.17,0,0,0-1.61-4.84,12.9,12.9,0,0,0-4.63-4.39L77,41.94l.35-.2A13.79,13.79,0,0,0,81.65,38.07Z"/><path class="cls-2" d="M23.05,23.8,75.71,42.16,22.39,60.4l.78-.36A27.63,27.63,0,0,1,12.81,63a15.54,15.54,0,0,1-5.51-.58A9.76,9.76,0,0,1,3.08,60a10.24,10.24,0,0,1-3-8.72,10.93,10.93,0,0,1,2.84-6.2,14.3,14.3,0,0,1,3.7-2.91L7,41.94l-.36-.21a13.62,13.62,0,0,1-3.72-2.94A10.85,10.85,0,0,1,.36,28.63,9.57,9.57,0,0,1,4,23.14a11.43,11.43,0,0,1,5-2,18.59,18.59,0,0,1,6.27.1,27.54,27.54,0,0,1,6.16,1.86C22.53,23.53,23.05,23.8,23.05,23.8Z"/></g></g></svg>