<svg id="Camada_1" data-name="Camada 1" xmlns="http://www.w3.org/2000/svg" viewBox="0 0 436.61 83.95"><defs><style>.cls-1{fill:#fff;}.cls-2{fill:#ff9e18;}</style></defs><title>Inovalotto - Logo</title><path class="cls-1" d="M169.35,392.1a11.18,11.18,0,0,0,2.18-5.13c0-.17,0-.34,0-.51s.05-.29.07-.43v-1.32c0-.12-.06-.24-.07-.36-.06-.41-.08-.83-.17-1.23a9.82,9.82,0,0,0-3.32-5.64,11.23,11.23,0,0,0-5.48-2.38,18.47,18.47,0,0,0-5.7,0,26.78,26.78,0,0,0-6.19,1.74,35,35,0,0,0-3.7,1.78c.26-.45.51-.92.74-1.39a27.43,27.43,0,0,0,3-10.73,15.11,15.11,0,0,0-.77-5.74,9.66,9.66,0,0,0-3.88-5,10.4,10.4,0,0,0-5.75-1.7,10.93,10.93,0,0,0-7,2.46,13.23,13.23,0,0,0-3,3.49c-.19.31-.37.63-.59,1-.09-.15-.15-.25-.22-.35-.45-.68-.85-1.4-1.37-2a11.15,11.15,0,0,0-10.48-4.47,9.92,9.92,0,0,0-8.42,7.27,16.62,16.62,0,0,0-.4,7.12,25.32,25.32,0,0,0,1.59,6,33.64,33.64,0,0,0,1.79,3.85L160.71,396l-48.6,17.73c-.18.34-.37.67-.54,1a27.74,27.74,0,0,0-2.92,10,16,16,0,0,0,.54,5.84,10.13,10.13,0,0,0,2.37,4.21,10,10,0,0,0,5.61,3l1.26.22h1.32l1.11-.2a11.3,11.3,0,0,0,6.52-3.58,14.54,14.54,0,0,0,2.09-2.9l.2-.33c.09.14.16.25.22.36a13.78,13.78,0,0,0,3.47,4.16,11,11,0,0,0,5.56,2.35c.24,0,.48.1.72.14H141l1.25-.22a9.93,9.93,0,0,0,8.12-7.84,17.36,17.36,0,0,0,.21-6.66A26.47,26.47,0,0,0,148.8,417a36.8,36.8,0,0,0-1.81-3.74,24.43,24.43,0,0,0,2.28,1.17A27.26,27.26,0,0,0,158.8,417a15.83,15.83,0,0,0,5.48-.56,9.88,9.88,0,0,0,7.29-8.87c0-.12.05-.23.07-.35v-1.32c0-.11-.06-.21-.07-.32a10.12,10.12,0,0,0-1.6-4.85,13.19,13.19,0,0,0-4.64-4.39l-.66-.38.35-.2A14,14,0,0,0,169.35,392.1Z" transform="translate(-87.7 -354.03)"/><path class="cls-2" d="M110.74,377.83l52.66,18.36-53.31,18.24.77-.37A27.41,27.41,0,0,1,100.51,417a15.49,15.49,0,0,1-5.51-.58A10,10,0,0,1,90.77,414a10.27,10.27,0,0,1-3-8.73,10.84,10.84,0,0,1,2.84-6.19,14.13,14.13,0,0,1,3.7-2.91l.35-.21-.37-.21a13.81,13.81,0,0,1-3.72-2.95,10.8,10.8,0,0,1-2.52-10.16,9.5,9.5,0,0,1,3.62-5.48,11.32,11.32,0,0,1,5-2,18.59,18.59,0,0,1,6.27.09,28,28,0,0,1,6.15,1.86C110.22,377.56,110.74,377.83,110.74,377.83Z" transform="translate(-87.7 -354.03)"/><path class="cls-1" d="M193.41,383.83c2.09,0,2.63.7,2.25,2.86l-6,34.46c-.39,2.16-1.24,2.86-3.32,2.86h-6c-2.16,0-2.7-.7-2.32-2.86l6-34.46c.39-2.16,1.24-2.86,3.4-2.86Zm.47-15.37c4.25,0,5.33,1.39,4.48,5.48l-.08.78c-.85,4.24-2.39,5.48-6.49,5.48h-1.62c-4.25,0-5.18-1.39-4.48-5.48l.07-.78c.7-4.09,2.32-5.48,6.58-5.48Z" transform="translate(-87.7 -354.03)"/><path class="cls-1" d="M218,382.67c11.05,0,15.6,6.26,13.75,16.69L228,421.15c-.39,2.16-1.24,2.86-3.4,2.86h-6c-2.09,0-2.71-.7-2.32-2.86l3.86-22.1c.7-3.86-1.08-5.79-5.48-5.79a21.22,21.22,0,0,0-5.56.69c-.08,0-.24.08-.31.31l-4.72,26.89c-.38,2.16-1.23,2.86-3.32,2.86h-6c-2.16,0-2.7-.7-2.31-2.86l5.48-31.22c.54-2.54,1.16-3.47,3.86-4.47A45.61,45.61,0,0,1,218,382.67Z" transform="translate(-87.7 -354.03)"/><path class="cls-1" d="M234.85,398.59c1.86-10.2,9.2-15.92,21.17-15.92s17.47,6.42,15.61,16.85l-1.7,10c-1.85,10.2-9,15.69-21.17,15.69-11.82,0-17.46-6.34-15.61-16.61Zm25.27.23q.93-5.79-5.79-5.79c-4.49,0-7.11,1.93-7.81,5.79L244.74,409c-.69,3.86,1.16,5.79,5.72,5.79s7.11-1.93,7.81-5.79Z" transform="translate(-87.7 -354.03)"/><path class="cls-1" d="M310.62,383.83c2.78,0,3.17.78,1.7,3.32l-19.39,34.31c-1.16,1.93-2.09,2.55-4.25,2.55H284c-2.16,0-3.09-.62-3.47-2.55l-7.11-34.31c-.39-2.54.23-3.32,3-3.32H281c3.33,0,4.18.62,4.41,2.86l2.7,15.07a44.37,44.37,0,0,1,.31,7.72l-.08,1.39h.54a48.77,48.77,0,0,1,3.48-9.11l7.8-15c1.24-2.48,2.09-2.94,5.41-2.94Z" transform="translate(-87.7 -354.03)"/><path class="cls-2" d="M359.61,421.15c-.39,2.16-1.24,2.86-3.4,2.86h-5.95c-2.16,0-2.7-.7-2.32-2.86l9-51.46c.39-2.16,1.24-2.86,3.4-2.86h5.95c2.17,0,2.71.7,2.32,2.86Z" transform="translate(-87.7 -354.03)"/><path class="cls-2" d="M366.42,398.59c1.85-10.2,9.2-15.92,21.17-15.92s17.46,6.42,15.61,16.85l-1.7,10c-1.85,10.2-9,15.69-21.17,15.69-11.82,0-17.46-6.34-15.61-16.61Zm25.27.23q.92-5.79-5.8-5.79c-4.48,0-7.11,1.93-7.8,5.79L376.31,409c-.69,3.86,1.16,5.79,5.72,5.79s7.11-1.93,7.8-5.79Z" transform="translate(-87.7 -354.03)"/><path class="cls-2" d="M425,374.61c2.09,0,2.71.69,2.32,2.86l-1.08,6.41h7.11c2.08,0,2.62.7,2.24,2.86l-.77,4.63c-.39,2.17-1.16,2.86-3.33,2.86H424.4l-2.31,13c-.93,5.88.46,7.19,5.79,7.19,2.16,0,2.78.69,2.4,2.94l-.85,4.86c-.39,2.17-1.24,2.86-3.4,2.94-6.72.23-11.36-1-13.76-3.55s-3.09-7.19-1.93-13.91l2.4-13.45h-4.18c-2.08,0-2.7-.69-2.31-2.86l.77-4.63c.39-2.16,1.24-2.86,3.4-2.86h4.17l1.08-6.41c.39-2.17,1.24-2.86,3.33-2.86Z" transform="translate(-87.7 -354.03)"/><path class="cls-2" d="M456.44,374.61c2.09,0,2.71.69,2.32,2.86l-1.08,6.41h7.11c2.08,0,2.62.7,2.24,2.86l-.77,4.63c-.39,2.17-1.16,2.86-3.33,2.86h-7.11l-2.31,13c-.93,5.88.46,7.19,5.79,7.19,2.16,0,2.78.69,2.4,2.94l-.85,4.86c-.39,2.17-1.24,2.86-3.4,2.94-6.72.23-11.36-1-13.76-3.55s-3.09-7.19-1.93-13.91l2.4-13.45H440c-2.08,0-2.7-.69-2.31-2.86l.77-4.63c.39-2.16,1.24-2.86,3.4-2.86H446l1.08-6.41c.39-2.17,1.24-2.86,3.33-2.86Z" transform="translate(-87.7 -354.03)"/><path class="cls-2" d="M466.67,398.59c1.85-10.2,9.19-15.92,21.17-15.92s17.46,6.42,15.6,16.85l-1.7,10c-1.85,10.2-9,15.69-21.17,15.69-11.82,0-17.46-6.34-15.6-16.61Zm25.26.23q.93-5.79-5.79-5.79c-4.49,0-7.11,1.93-7.81,5.79L476.56,409c-.7,3.86,1.15,5.79,5.71,5.79s7.11-1.93,7.81-5.79Z" transform="translate(-87.7 -354.03)"/><path class="cls-1" d="M224.84,383.29" transform="translate(-87.7 -354.03)"/><path class="cls-1" d="M345.92,385.22c-3.31-1.7-8-2.55-14.26-2.55-12.27,0-18.82,4.79-20.75,15.58l-1.7,9.72c-1.93,10.41,3.09,17.12,14.19,17.12A69,69,0,0,0,336.16,424c1.38.79,3.77.74,6.86,0,2.1-.51,2.06-2,2.26-3.36s.43-2.51.66-3.72.1-2.17-1.27-2.51c-1-.24-.92-.79-.42-3.77l2.39-13.64.24-1.35h0l1.06-6C348.47,387,348.16,386.37,345.92,385.22Zm-19.74,29.46c-4.32,0-6.17-1.85-5.55-5.63l1.69-9.64c.85-4.55,3.32-6.33,8.26-6.33a17.36,17.36,0,0,1,4.55.54.44.44,0,0,1,.38.62L332,414.14A27,27,0,0,1,326.18,414.68Z" transform="translate(-87.7 -354.03)"/><path class="cls-2" d="M508.07,383.07a7.73,7.73,0,0,1,2.42-5.74,7.85,7.85,0,0,1,5.74-2.38,7.74,7.74,0,0,1,5.69,2.38,7.85,7.85,0,0,1,2.38,5.74A8,8,0,0,1,522,388.8a8.08,8.08,0,0,1-11.47,0A7.73,7.73,0,0,1,508.07,383.07Zm2.13,0a5.8,5.8,0,0,0,1.76,4.26,6,6,0,0,0,8.54,0,6,6,0,1,0-10.3-4.26ZM517,379a2.64,2.64,0,0,1,2.89,2.76,2.31,2.31,0,0,1-1.67,2.47l1.33,2.17c.34.47.21.72-.37.72h-.92a.9.9,0,0,1-.84-.42l-1.3-2.26h-1.21v2.22c0,.37-.13.46-.5.46h-.88c-.34,0-.5-.17-.5-.46v-7.16c0-.46.08-.5.54-.5Zm-2.09,3.72h2a1,1,0,1,0,0-1.92h-2Z" transform="translate(-87.7 -354.03)"/></svg>